<?xml version="1.0" encoding="UTF-8"?>
<svg viewBox="0 0 100 100" xmlns="http://www.w3.org/2000/svg">
  <circle cx="50" cy="50" r="50" fill="#e0938a"/>
  <path fill="#ffffff" fill-rule="evenodd"
    transform="translate(-57.6 -2.8) scale(2.1)"
    d="M43.11 39c0-.48.37-.72.89-1.33s.57-1.05.57-2.42V17.8a2.35 2.35 0 0 0-.89-2.14c-.93-.77-1.58-.81-1.58-1.7 0-1.33 4.12-2.66 6.14-2.66.89 0 1.53.56 1.53 1.81V14h.17a8.34 8.34 0 0 1 6.21-2.7c5.37 0 9.33 3.71 9.33 10.61 0 6.14-3.75 10.79-9.53 10.79a8.81 8.81 0 0 1-5.57-1.78v4a1.68 1.68 0 0 0 1.09 1.61c.73.36 1.37.49 1.37 1.25 0 1.25-2.34 1.74-4.4 2.06-2.54.37-5.33.65-5.33-.84zm16.35-14.74c0-4.52-2-9.65-5.28-9.69-2 0-3.8 1.69-3.8 4.72v3.27c0 3.84 2.26 7.39 5.09 7.39 2.42.05 3.91-1.95 3.99-5.69z"/>
</svg>
