<?xml version="1.0" encoding="UTF-8"?>
<svg data-bbox="0 -0.02 100.49 28.857" viewBox="0 0 100.49 28.83" xmlns="http://www.w3.org/2000/svg" data-type="color">
    <g>
        <g>
            <path d="M1 27.74c0-.49.36-.73.89-1.33s.56-1.05.56-2.43V6.5a2.33 2.33 0 0 0-.89-2.14C.65 3.59 0 3.55 0 2.67 0 1.33 4.12 0 6.14 0 7 0 7.67.57 7.67 1.82v.89h.16A8.36 8.36 0 0 1 14.05 0c5.37 0 9.33 3.71 9.33 10.62 0 6.14-3.76 10.78-9.53 10.78a8.81 8.81 0 0 1-5.57-1.78v4a1.65 1.65 0 0 0 1.09 1.61c.72.37 1.37.49 1.37 1.26 0 1.25-2.34 1.73-4.4 2.05-2.55.37-5.34.65-5.34-.8zM17.36 13c0-4.52-2-9.65-5.29-9.69-2 0-3.79 1.7-3.79 4.72v3.27c0 3.84 2.26 7.39 5.08 7.39 2.43-.04 3.92-1.98 4-5.69z" fill="#999999" data-color="1"/>
            <path d="M24.79 19.58c0-1.25 2-1.33 2-2.95V6.18a1.85 1.85 0 0 0-.73-1.78c-1.09-.65-1.69-.85-1.69-1.69 0-1.18 4.11-2.67 6-2.67 1.41 0 1.78.61 1.82 2v1.88h.16C33.43 1.25 35.53 0 37.27 0a2.85 2.85 0 0 1 3.15 3.07 2.85 2.85 0 0 1-3.07 3.15c-1.05 0-1.42-.33-2.51-.33s-2.18.65-2.18 3.6v7.14c0 1.62 2 1.7 2 2.95 0 1-.85 1.21-2.1 1.21h-5.67c-1.25 0-2.1-.24-2.1-1.21z" fill="#999999" data-color="1"/>
            <path d="M40.13 11.06c0-6.58 5.13-11 11.39-11 6.1 0 10.94 3.8 10.94 10.34s-4.84 11-11.3 11-10.99-4.04-11.03-10.34zm16.07 2.06c0-4.36-2-10.41-5.85-10.41-2.63 0-4 2.13-4 5.49 0 4.44 2 10.49 5.86 10.49 2.58 0 3.99-2.14 3.99-5.57z" fill="#999999" data-color="1"/>
            <path d="M63.43 16.59a2 2 0 0 1 2-2.05c3.11 0 3 4.27 6.46 4.27 1.69 0 2.7-.8 2.7-2.26 0-1.81-1.65-2.82-4.48-4.07-3.35-1.5-6-3-6-6.5 0-3.8 3.39-6 8-6C77 0 80 2.1 80 4.4a1.93 1.93 0 0 1-1.89 2.06c-3.15 0-2.79-3.88-6.38-3.88-1.5 0-2.35.85-2.35 2 0 1.42.61 2.18 4.85 4.12 3.19 1.45 5.81 3.15 5.81 6.62s-3.15 6.1-8.27 6.1c-5.64-.02-8.34-2.69-8.34-4.83z" fill="#999999" data-color="1"/>
            <path d="M100.45 15.34a3.59 3.59 0 0 1-.24 1.25 8.36 8.36 0 0 1-7.95 4.77c-6.54 0-10.82-4.12-10.82-10.34S85.68.08 91.93.08c5.53 0 8.56 3.47 8.56 7.63 0 2-.89 2.83-2.86 2.83h-10.5c.52 3.91 3 6.38 6.54 6.38a6 6 0 0 0 4.64-2.18 1.53 1.53 0 0 1 1.13-.57 1 1 0 0 1 1.01 1.17zM87 8.32h7.83A4.86 4.86 0 0 0 95 7.23c0-2.63-1-4.65-3.67-4.65-2.46 0-4.16 2.42-4.33 5.74z" fill="#999999" data-color="1"/>
        </g>
    </g>
</svg>
