<?xml version="1.0" encoding="UTF-8"?>
<svg viewBox="0 0 200 200" xmlns="http://www.w3.org/2000/svg">
  <circle cx="100" cy="100" r="100" fill="#e0938a"/>
  <g transform="translate(58.47 38.04) scale(0.75)" fill="#ffffff">
    <path d="M110.3 89.69a55.84 55.84 0 0 0 0-14.15V28.29c0-7.64-5.77-14.78-16.24-20.12S70 0 55.38 0 27 2.9 16.69 8.17.45 20.65.45 28.29V75.3a55.9 55.9 0 0 0 0 14.62v47c0 7.63 5.77 14.78 16.24 20.12s24.08 8.17 38.69 8.17 28.34-2.9 38.68-8.17 15.93-12.11 16.23-19.52zM6.71 146.56a15.3 15.3 0 0 1-3.84-9v-1.47a15.39 15.39 0 0 1 3.82-8.75 31.53 31.53 0 0 1 8.31-6.85 55.29 55.29 0 0 0 80.72 0 31.63 31.63 0 0 1 8.3 6.82 19.26 19.26 0 0 1 2.25 3.35l.16.32a13.3 13.3 0 0 1 1.44 6 15 15 0 0 1-3.85 9.63A34.73 34.73 0 0 1 93 154.9c-10 5.1-23.36 7.91-37.59 7.91S27.8 160 17.79 154.9a34.78 34.78 0 0 1-11.08-8.34zM2.89 36.7c2.11 3.6 5.69 6.94 10.49 9.86A55.32 55.32 0 0 0 2.89 65zm0 45A15.44 15.44 0 0 1 6.7 73a34.81 34.81 0 0 1 11.07-8.39A72.35 72.35 0 0 1 38.51 58l-21.39 42.29A33.9 33.9 0 0 1 6.7 92.24a15.44 15.44 0 0 1-3.81-8.75zm71 9.11a40.7 40.7 0 0 1-17.32 3.9V70.47a40.7 40.7 0 0 1 17.32 3.9c4.52 2.32 7 5.24 7 8.24s-2.47 5.93-6.99 8.24zM75 72.17A43.36 43.36 0 0 0 56.58 68V56.64a102.51 102.51 0 0 1 12.81.94l8.11 16.07a23.91 23.91 0 0 0-2.5-1.48zm-38.13 2.2a40.77 40.77 0 0 1 17.32-3.9v24.28a40.77 40.77 0 0 1-17.32-3.9c-4.52-2.31-7-5.24-7-8.24s2.46-5.92 6.98-8.24zm4.59-16.8a101.24 101.24 0 0 1 12.73-.93V68a43.4 43.4 0 0 0-18.4 4.16 24.5 24.5 0 0 0-2.44 1.43zm-5.69 35.48a43.25 43.25 0 0 0 18.4 4.16v11.37c-13.08-.14-25.36-2.68-34.89-7.21l8.43-16.68c.85 3.18 3.64 6.1 8.06 8.36zm20.81 4.16A43.21 43.21 0 0 0 75 93.05c4.45-2.27 7.24-5.21 8.07-8.41l8.45 16.72c-9.54 4.53-21.83 7.08-34.92 7.22zm47.47-5a33.78 33.78 0 0 1-10.4 8L72.31 58A72.18 72.18 0 0 1 93 64.59 34.69 34.69 0 0 1 104.05 73a15.06 15.06 0 0 1 3.84 9.63 15 15 0 0 1-3.84 9.61zm-10-29.85a75.78 75.78 0 0 0-22.73-7 76.34 76.34 0 0 0 22.73-7c.4-.2.8-.41 1.18-.62a52.81 52.81 0 0 1 12.37 25.98c-2.67-4.24-7.26-8.11-13.54-11.33zm-37.47-8.2V32.22l10.74 21.27a101.67 101.67 0 0 1-10.74.67zm-2.41 0a103.24 103.24 0 0 1-10.67-.66l10.67-21.09zM16 102.48l-4.76 9.41A52.56 52.56 0 0 1 3.15 91.5c2.57 4.09 6.93 7.83 12.85 10.98zm-4.4 14c.57.73 1.15 1.45 1.76 2.15A39.29 39.29 0 0 0 9 121.74zm1.2-2.39l5.35-10.56a77.42 77.42 0 0 0 21.25 6.28 76.34 76.34 0 0 0-22.73 7c-.4.2-.8.41-1.18.62-.92-1.06-1.81-2.17-2.67-3.31zm58.51-4.28a77.12 77.12 0 0 0 21.27-6.29l5.33 10.56c-.85 1.15-1.74 2.26-2.69 3.33-.38-.21-.78-.42-1.18-.62a76.34 76.34 0 0 0-22.71-6.95zm27.81 6.66l2.65 5.25a40.27 40.27 0 0 0-4.41-3.09c.64-.63 1.21-1.39 1.78-2.13zm.36-4.62l-4.75-9.41c5.93-3.14 10.28-6.88 12.85-11a52.81 52.81 0 0 1-8.08 20.44zM16.69 48.4a76.32 76.32 0 0 0 22.74 7 75.75 75.75 0 0 0-22.74 7c-6.28 3.21-10.87 7.08-13.54 11.32a52.81 52.81 0 0 1 12.36-25.94c.38.22.78.42 1.18.62zm1.1 70.6c9.72-4.95 22.6-7.75 36.38-7.9v24.5a52.82 52.82 0 0 1-37-16.28zm38.79-7.9c13.78.15 26.66 3 36.39 7.9l.6.31a52.79 52.79 0 0 1-37 16.29zM93 46.26a74.49 74.49 0 0 1-23.11 6.9L58 29.71A52.87 52.87 0 0 1 93.57 46zm-52 6.92a74.69 74.69 0 0 1-23.18-6.92l-.64-.26a52.86 52.86 0 0 1 35.66-16.3zM107.89 65a55.31 55.31 0 0 0-10.52-18.44c4.82-2.93 8.37-6.29 10.52-9.91V65zM10 114.34l-7.11 14.08v-28.15A55 55 0 0 0 10 114.34zm97.87 14.15l-7.15-14.16a55.47 55.47 0 0 0 7.15-14.14v28.3zM104 18.66a15 15 0 0 1 3.85 9.63 15 15 0 0 1-3.85 9.62 31.85 31.85 0 0 1-8.3 6.83 55.3 55.3 0 0 0-39-17.49h-2.62A55.21 55.21 0 0 0 15 44.74a31.75 31.75 0 0 1-8.31-6.83 15.33 15.33 0 0 1-3.82-8.74v-.88a15.06 15.06 0 0 1 3.85-9.63 34.78 34.78 0 0 1 11.08-8.34c10-5.1 23.36-7.91 37.59-7.91S83 5.22 93 10.32a34.73 34.73 0 0 1 11 8.34z"/>
  </g>
</svg>
